<svg version="1.1" id="Layer_1" xmlns="http://www.w3.org/2000/svg" xmlns:xlink="http://www.w3.org/1999/xlink" x="0px" y="0px"
	 width="100%" viewBox="0 0 496 496" enable-background="new 0 0 496 496" xml:space="preserve">
<path fill="#000000" opacity="1.000000" stroke="none" 
	d="
M452.205902,276.129364 
	C430.598694,304.854401 402.364410,320.062988 366.527039,320.330780 
	C347.534149,320.472748 328.537994,320.241180 309.546387,320.453644 
	C305.006775,320.504425 303.564362,319.135925 303.573395,314.525818 
	C303.702850,248.547073 303.698151,182.567947 303.585236,116.589142 
	C303.577637,112.142044 304.725830,110.500206 309.442139,110.557106 
	C329.599579,110.800293 349.770538,110.286232 369.919861,110.759544 
	C419.377472,111.921310 460.678345,149.342941 468.328552,192.863480 
	C473.535950,222.487259 470.066345,250.545807 452.205902,276.129364 
M400.544922,260.040985 
	C413.907745,246.456238 418.549652,229.878189 417.822784,211.217667 
	C416.509979,177.513168 390.884216,153.331314 357.266357,154.229843 
	C353.645477,154.326614 352.261230,155.479401 352.269989,159.176453 
	C352.359131,196.815155 352.360504,234.454208 352.288879,272.092957 
	C352.282196,275.602661 353.716705,276.702026 357.044617,276.795227 
	C373.629852,277.259827 388.240753,272.658325 400.544922,260.040985 
z"/>
<path fill="#000000" opacity="1.000000" stroke="none" 
	d="
M231.216370,316.987488 
	C232.255569,319.698639 231.060974,320.352814 228.989441,320.351044 
	C213.656494,320.337799 198.323502,320.310669 182.990631,320.340698 
	C180.128174,320.346283 179.490738,318.274414 178.734833,316.224457 
	C174.875015,305.756989 170.861496,295.342224 167.238129,284.793488 
	C165.787231,280.569489 163.709290,278.790436 158.984818,278.845337 
	C136.487961,279.106842 113.986069,279.063171 91.487328,278.918152 
	C87.528709,278.892639 85.490845,280.186096 84.176033,283.972015 
	C80.407745,294.822540 76.252121,305.538086 72.308929,316.328705 
	C71.450714,318.677216 70.466927,320.421265 67.473587,320.400635 
	C52.141663,320.295135 36.808784,320.332428 21.476322,320.289673 
	C20.845087,320.287903 20.214693,319.984161 19.455656,319.787964 
	C19.482986,316.228821 21.282173,313.332031 22.501585,310.303925 
	C48.566658,245.577774 74.717560,180.886139 100.703506,116.128288 
	C102.296524,112.158432 104.176880,110.424355 108.645905,110.551987 
	C119.969925,110.875381 131.313446,110.835861 142.640305,110.567589 
	C146.639709,110.472870 148.600540,111.898743 150.048950,115.520676 
	C164.393433,151.390778 178.867264,187.209183 193.319260,223.036255 
	C205.902786,254.231232 218.505341,285.418549 231.216370,316.987488 
M105.455833,228.798065 
	C104.988632,230.832291 103.402756,232.654099 104.294708,235.165344 
	C118.546242,235.165344 132.798416,235.165344 147.975510,235.165344 
	C140.517990,215.707611 133.369293,197.055679 125.890945,177.543640 
	C124.992645,179.174469 124.612572,179.712799 124.380081,180.308716 
	C118.166077,196.236160 111.967239,212.169540 105.455833,228.798065 
z"/>
<path fill="#000000" opacity="1.000000" stroke="none" 
	d="
M295.728302,266.260864 
	C270.435944,266.354340 245.613983,266.317749 220.792984,266.456970 
	C216.968155,266.478455 215.483429,265.344940 215.575806,261.334686 
	C215.805908,251.344650 215.733231,241.344162 215.586304,231.350754 
	C215.535828,227.917343 216.773468,226.645813 220.235901,226.658936 
	C244.724487,226.751740 269.213684,226.741013 293.702454,226.676498 
	C296.883942,226.668121 298.224030,227.880112 298.199341,231.080017 
	C298.119598,241.407990 298.183899,251.736984 298.152527,262.065460 
	C298.147552,263.697876 298.313660,265.510620 295.728302,266.260864 
z"/>
</svg>