<svg version="1.1" id="Layer_1" xmlns="http://www.w3.org/2000/svg" xmlns:xlink="http://www.w3.org/1999/xlink" x="0px" y="0px"
	 width="100%" viewBox="0 0 269 168" enable-background="new 0 0 269 168" xml:space="preserve">
<path fill="#FDFDFD" opacity="1.000000" stroke="none" 
	d="
M199.000000,169.000000 
	C132.666672,169.000000 66.833351,169.000000 1.000018,169.000000 
	C1.000012,113.000015 1.000012,57.000031 1.000006,1.000033 
	C90.666649,1.000022 180.333298,1.000022 269.999939,1.000011 
	C269.999969,56.999969 269.999969,112.999939 270.000000,168.999954 
	C246.500000,169.000000 223.000000,169.000000 199.000000,169.000000 
M151.734741,88.129753 
	C150.667770,89.721573 148.730896,91.285042 148.677933,92.909912 
	C148.380035,102.050255 148.380951,111.210518 148.684372,120.350563 
	C148.736557,121.922646 150.510254,124.464050 151.877289,124.759453 
	C155.048737,125.444763 155.494247,122.705994 155.502045,120.216415 
	C155.523972,113.215218 155.509689,106.213913 155.509689,99.265045 
	C156.101410,100.383858 156.838730,101.778984 157.576965,103.173622 
	C160.836090,109.330482 163.885605,115.614449 167.491150,121.561279 
	C168.486832,123.203484 171.052338,124.392151 173.067245,124.708656 
	C174.080032,124.867744 176.497543,122.634460 176.533234,121.431252 
	C176.828995,111.460281 176.833328,101.474052 176.566696,91.502052 
	C176.536118,90.358910 174.300949,89.274719 173.087952,88.163200 
	C172.002838,89.356575 170.090576,90.479706 169.982193,91.756020 
	C169.603592,96.214584 169.849564,100.726067 169.855331,105.217438 
	C169.858521,107.686798 169.855911,110.156151 169.855911,113.705688 
	C165.464600,105.543365 161.868164,98.443535 157.810745,91.617729 
	C156.834839,89.975967 154.329727,89.243195 151.734741,88.129753 
M163.990936,58.373718 
	C163.990936,61.017494 163.990936,63.661274 163.990936,67.497299 
	C159.442017,59.038986 155.790436,51.767754 151.593430,44.826313 
	C150.686737,43.326759 147.872803,42.654858 145.822754,42.333961 
	C145.013916,42.207355 143.060257,44.065414 143.040405,45.048283 
	C142.832214,55.357143 142.818970,65.673882 143.053238,75.981590 
	C143.076370,77.000153 145.108841,78.767357 146.190689,78.753761 
	C147.374146,78.738892 148.969055,77.274879 149.585724,76.042641 
	C150.192596,74.829979 149.832672,73.116318 149.836914,71.622314 
	C149.852493,66.135185 149.843094,60.647987 149.843094,54.335052 
	C150.810516,55.827568 151.523102,56.781071 152.084213,57.816658 
	C155.323959,63.795937 158.278336,69.952248 161.900681,75.687775 
	C162.947113,77.344666 165.810669,78.257416 167.981461,78.586876 
	C168.765350,78.705849 170.797119,76.138557 170.833038,74.759918 
	C171.084274,65.117851 171.080963,55.462711 170.812454,45.821415 
	C170.777679,44.572968 168.754333,43.379898 167.652115,42.161175 
	C166.432358,43.419079 164.342484,44.563343 164.160507,45.956783 
	C163.669144,49.719036 163.989975,53.587368 163.990936,58.373718 
M96.718170,88.475815 
	C93.570457,88.348030 90.420776,88.256050 87.275574,88.082787 
	C83.864479,87.894882 82.478561,89.524323 82.515152,92.857742 
	C82.591705,99.830933 82.452621,106.806725 82.549751,113.779388 
	C82.726028,126.434204 80.373146,125.222168 94.509369,124.885414 
	C104.309189,124.651970 110.010208,118.561058 110.807915,108.344696 
	C111.639656,97.692444 107.084427,90.953056 96.718170,88.475815 
M184.829956,101.496498 
	C183.289185,108.557800 184.202408,115.132423 189.184372,120.634590 
	C193.671082,125.589806 201.776993,126.800217 208.627502,124.539146 
	C215.735245,122.193169 213.727905,116.521500 213.845779,111.668869 
	C214.013214,104.775246 213.759369,104.463303 206.947388,104.824966 
	C204.892365,104.934067 201.412811,106.205185 201.181717,107.432716 
	C200.485458,111.131157 204.083786,110.421349 206.343414,110.941444 
	C206.607285,111.002190 206.809662,111.330109 206.982727,111.483063 
	C207.274857,118.862915 206.686584,119.559792 201.018600,119.110832 
	C196.629562,118.763168 193.928604,116.283890 192.761719,112.297012 
	C191.102814,106.629066 191.143463,100.978249 195.523270,96.427475 
	C198.472870,93.362755 202.338242,93.105652 206.142471,94.839760 
	C208.601929,95.960876 211.050034,96.256958 211.725739,93.365250 
	C211.992432,92.223961 209.881226,89.840202 208.332443,89.073997 
	C198.938354,84.426651 188.707275,89.625298 184.829956,101.496498 
M49.960442,64.349907 
	C48.953522,67.508209 47.651642,70.613365 47.068859,73.848076 
	C46.793232,75.377945 47.894093,77.155792 48.371300,78.821289 
	C50.087574,77.878174 52.303143,77.314873 53.386715,75.890450 
	C54.590839,74.307549 54.762951,71.939583 55.347328,70.034187 
	C65.092850,68.885048 64.934601,68.980125 69.398788,76.410164 
	C70.230194,77.793922 72.902710,78.071495 74.725540,78.859573 
	C75.133972,77.173386 76.260529,75.274353 75.834091,73.835625 
	C73.103516,64.623207 69.962692,55.533367 67.111771,46.355080 
	C66.175789,43.341785 64.404243,42.040977 61.307442,42.054161 
	C58.144787,42.067635 56.547493,43.593307 55.663486,46.555443 
	C53.958248,52.269386 51.992249,57.905510 49.960442,64.349907 
M114.351547,75.673386 
	C115.625465,73.656876 116.490845,70.546974 118.269852,69.882271 
	C120.883102,68.905853 124.409081,68.985909 127.034935,69.974251 
	C128.498535,70.525131 128.531494,74.170197 129.938522,75.785591 
	C131.232819,77.271576 133.503769,77.906898 135.344467,78.916954 
	C135.815292,77.238350 137.049271,75.335815 136.633102,73.917458 
	C133.929855,64.704544 131.087631,55.515259 127.746521,46.520451 
	C127.038017,44.613033 124.272362,42.865253 122.110809,42.248451 
	C119.117683,41.394356 117.316475,43.558651 116.412048,46.457062 
	C113.600494,55.467125 110.594719,64.418556 107.938072,73.473061 
	C107.490128,74.999748 108.400780,76.925064 108.683716,78.666199 
	C110.473091,77.913147 112.262466,77.160095 114.351547,75.673386 
M125.348862,117.102051 
	C125.348862,114.498314 125.348862,111.894577 125.348862,108.994858 
	C128.361618,108.994858 130.910873,109.367363 133.277740,108.870705 
	C135.005478,108.508171 136.493011,107.000900 138.087631,106.003937 
	C136.567123,104.961098 135.163132,103.349602 133.498825,103.008644 
	C130.999847,102.496696 128.318375,102.875420 125.652130,102.875420 
	C125.652130,99.722221 125.652130,97.161903 125.652130,94.211922 
	C129.423294,94.211922 132.919479,94.517136 136.316254,94.068962 
	C137.773743,93.876656 139.024643,92.118744 140.369415,91.072151 
	C139.087250,90.084404 137.860016,88.342880 136.513000,88.244690 
	C131.719040,87.895203 126.884056,88.075172 122.065086,88.114410 
	C119.166023,88.138008 117.973106,89.717018 117.989952,92.569931 
	C118.044922,101.875923 118.050987,111.182739 117.986610,120.488617 
	C117.964981,123.614632 119.276978,125.079514 122.450806,125.024025 
	C126.936401,124.945595 131.454956,125.306931 135.896408,124.857506 
	C137.682053,124.676819 139.300751,122.846321 140.995422,121.766701 
	C139.368011,120.808487 137.839218,119.335678 136.092331,119.000839 
	C132.620880,118.335472 129.029312,118.296783 125.348862,117.102051 
M229.046295,132.436523 
	C228.971069,133.715622 228.895844,134.994736 228.759979,137.304825 
	C220.951767,137.304825 213.408997,137.304825 205.866226,137.304825 
	C205.889526,137.899506 205.912827,138.494171 205.936127,139.088852 
	C214.594376,139.088852 223.252625,139.088852 232.056900,139.088852 
	C232.056900,101.752876 232.056900,64.181999 232.056900,27.216557 
	C223.172607,27.216557 214.564789,27.216557 205.956970,27.216557 
	C205.969879,27.855120 205.982788,28.493683 205.995697,29.132246 
	C213.636200,29.132246 221.276688,29.132246 229.034027,29.132246 
	C229.034027,63.828434 229.034027,97.639961 229.046295,132.436523 
M33.931267,139.328278 
	C39.665028,139.244919 45.398788,139.161545 51.132545,139.078171 
	C51.120903,138.318512 51.109257,137.558838 51.097610,136.799164 
	C43.472275,136.799164 35.846935,136.799164 28.116667,136.799164 
	C28.116667,100.411003 28.116667,65.002716 28.116667,28.738796 
	C35.883999,28.738796 43.487640,28.738796 52.051754,28.738796 
	C48.655193,25.934441 31.426779,25.136593 24.884827,26.651535 
	C24.884827,64.113937 24.884827,101.558342 24.884827,139.343155 
	C27.733120,139.343155 30.373804,139.343155 33.931267,139.328278 
M89.011246,44.209770 
	C87.479454,43.611752 85.603973,42.184326 84.508141,42.638405 
	C83.303009,43.137772 82.156586,45.353107 82.122330,46.846916 
	C81.909035,56.149216 82.033768,65.458893 82.003410,74.765984 
	C81.993958,77.663925 83.327637,79.037964 86.238838,79.010658 
	C90.892021,78.967018 95.561852,79.209885 100.189552,78.863205 
	C101.545509,78.761627 102.782578,77.073029 104.074135,76.111809 
	C102.747070,75.041313 101.518715,73.242500 100.073120,73.046570 
	C96.694687,72.588676 93.211960,72.900330 89.183578,72.900330 
	C89.183578,63.284241 89.183578,54.183109 89.011246,44.209770 
z"/>
<path fill="#090909" opacity="1.000000" stroke="none" 
	d="
M152.131317,88.111069 
	C154.329727,89.243195 156.834839,89.975967 157.810745,91.617729 
	C161.868164,98.443535 165.464600,105.543365 169.855911,113.705688 
	C169.855911,110.156151 169.858521,107.686798 169.855331,105.217438 
	C169.849564,100.726067 169.603592,96.214584 169.982193,91.756020 
	C170.090576,90.479706 172.002838,89.356575 173.087952,88.163200 
	C174.300949,89.274719 176.536118,90.358910 176.566696,91.502052 
	C176.833328,101.474052 176.828995,111.460281 176.533234,121.431252 
	C176.497543,122.634460 174.080032,124.867744 173.067245,124.708656 
	C171.052338,124.392151 168.486832,123.203484 167.491150,121.561279 
	C163.885605,115.614449 160.836090,109.330482 157.576965,103.173622 
	C156.838730,101.778984 156.101410,100.383858 155.509689,99.265045 
	C155.509689,106.213913 155.523972,113.215218 155.502045,120.216415 
	C155.494247,122.705994 155.048737,125.444763 151.877289,124.759453 
	C150.510254,124.464050 148.736557,121.922646 148.684372,120.350563 
	C148.380951,111.210518 148.380035,102.050255 148.677933,92.909912 
	C148.730896,91.285042 150.667770,89.721573 152.131317,88.111069 
z"/>
<path fill="#070707" opacity="1.000000" stroke="none" 
	d="
M163.989746,57.893665 
	C163.989975,53.587368 163.669144,49.719036 164.160507,45.956783 
	C164.342484,44.563343 166.432358,43.419079 167.652115,42.161175 
	C168.754333,43.379898 170.777679,44.572968 170.812454,45.821415 
	C171.080963,55.462711 171.084274,65.117851 170.833038,74.759918 
	C170.797119,76.138557 168.765350,78.705849 167.981461,78.586876 
	C165.810669,78.257416 162.947113,77.344666 161.900681,75.687775 
	C158.278336,69.952248 155.323959,63.795937 152.084213,57.816658 
	C151.523102,56.781071 150.810516,55.827568 149.843094,54.335052 
	C149.843094,60.647987 149.852493,66.135185 149.836914,71.622314 
	C149.832672,73.116318 150.192596,74.829979 149.585724,76.042641 
	C148.969055,77.274879 147.374146,78.738892 146.190689,78.753761 
	C145.108841,78.767357 143.076370,77.000153 143.053238,75.981590 
	C142.818970,65.673882 142.832214,55.357143 143.040405,45.048283 
	C143.060257,44.065414 145.013916,42.207355 145.822754,42.333961 
	C147.872803,42.654858 150.686737,43.326759 151.593430,44.826313 
	C155.790436,51.767754 159.442017,59.038986 163.990936,67.497299 
	C163.990936,63.661274 163.990936,61.017494 163.989746,57.893665 
z"/>
<path fill="#080808" opacity="1.000000" stroke="none" 
	d="
M97.125732,88.590477 
	C107.084427,90.953056 111.639656,97.692444 110.807915,108.344696 
	C110.010208,118.561058 104.309189,124.651970 94.509369,124.885414 
	C80.373146,125.222168 82.726028,126.434204 82.549751,113.779388 
	C82.452621,106.806725 82.591705,99.830933 82.515152,92.857742 
	C82.478561,89.524323 83.864479,87.894882 87.275574,88.082787 
	C90.420776,88.256050 93.570457,88.348030 97.125732,88.590477 
M93.058571,118.955414 
	C101.249054,117.417908 104.167519,112.794968 102.949509,103.287857 
	C102.105644,96.700981 97.847282,93.756599 89.949677,94.526642 
	C89.949677,101.932442 89.886101,109.371292 90.047157,116.805267 
	C90.063423,117.555931 91.436378,118.277199 93.058571,118.955414 
z"/>
<path fill="#0A0A0A" opacity="1.000000" stroke="none" 
	d="
M184.904144,101.093536 
	C188.707275,89.625298 198.938354,84.426651 208.332443,89.073997 
	C209.881226,89.840202 211.992432,92.223961 211.725739,93.365250 
	C211.050034,96.256958 208.601929,95.960876 206.142471,94.839760 
	C202.338242,93.105652 198.472870,93.362755 195.523270,96.427475 
	C191.143463,100.978249 191.102814,106.629066 192.761719,112.297012 
	C193.928604,116.283890 196.629562,118.763168 201.018600,119.110832 
	C206.686584,119.559792 207.274857,118.862915 206.982727,111.483063 
	C206.809662,111.330109 206.607285,111.002190 206.343414,110.941444 
	C204.083786,110.421349 200.485458,111.131157 201.181717,107.432716 
	C201.412811,106.205185 204.892365,104.934067 206.947388,104.824966 
	C213.759369,104.463303 214.013214,104.775246 213.845779,111.668869 
	C213.727905,116.521500 215.735245,122.193169 208.627502,124.539146 
	C201.776993,126.800217 193.671082,125.589806 189.184372,120.634590 
	C184.202408,115.132423 183.289185,108.557800 184.904144,101.093536 
z"/>
<path fill="#0B0B0B" opacity="1.000000" stroke="none" 
	d="
M50.047401,63.961906 
	C51.992249,57.905510 53.958248,52.269386 55.663486,46.555443 
	C56.547493,43.593307 58.144787,42.067635 61.307442,42.054161 
	C64.404243,42.040977 66.175789,43.341785 67.111771,46.355080 
	C69.962692,55.533367 73.103516,64.623207 75.834091,73.835625 
	C76.260529,75.274353 75.133972,77.173386 74.725540,78.859573 
	C72.902710,78.071495 70.230194,77.793922 69.398788,76.410164 
	C64.934601,68.980125 65.092850,68.885048 55.347328,70.034187 
	C54.762951,71.939583 54.590839,74.307549 53.386715,75.890450 
	C52.303143,77.314873 50.087574,77.878174 48.371300,78.821289 
	C47.894093,77.155792 46.793232,75.377945 47.068859,73.848076 
	C47.651642,70.613365 48.953522,67.508209 50.047401,63.961906 
M59.050098,55.651623 
	C58.403500,58.298698 57.756897,60.945774 57.101295,63.629707 
	C60.086163,63.629707 62.638916,63.629707 65.589104,63.629707 
	C64.214783,58.454231 62.938705,53.648739 61.378319,47.772591 
	C60.447876,50.832691 59.833492,52.853317 59.050098,55.651623 
z"/>
<path fill="#0B0B0B" opacity="1.000000" stroke="none" 
	d="
M114.201691,76.040215 
	C112.262466,77.160095 110.473091,77.913147 108.683716,78.666199 
	C108.400780,76.925064 107.490128,74.999748 107.938072,73.473061 
	C110.594719,64.418556 113.600494,55.467125 116.412048,46.457062 
	C117.316475,43.558651 119.117683,41.394356 122.110809,42.248451 
	C124.272362,42.865253 127.038017,44.613033 127.746521,46.520451 
	C131.087631,55.515259 133.929855,64.704544 136.633102,73.917458 
	C137.049271,75.335815 135.815292,77.238350 135.344467,78.916954 
	C133.503769,77.906898 131.232819,77.271576 129.938522,75.785591 
	C128.531494,74.170197 128.498535,70.525131 127.034935,69.974251 
	C124.409081,68.985909 120.883102,68.905853 118.269852,69.882271 
	C116.490845,70.546974 115.625465,73.656876 114.201691,76.040215 
M118.039070,62.712891 
	C120.626701,63.233932 123.214325,63.754971 126.577637,64.432198 
	C125.014107,58.627747 123.761597,53.977913 122.509087,49.328079 
	C122.212387,49.314732 121.915680,49.301384 121.618980,49.288040 
	C120.461121,53.482090 119.303261,57.676144 118.039070,62.712891 
z"/>
<path fill="#050505" opacity="1.000000" stroke="none" 
	d="
M125.418121,117.550598 
	C129.029312,118.296783 132.620880,118.335472 136.092331,119.000839 
	C137.839218,119.335678 139.368011,120.808487 140.995422,121.766701 
	C139.300751,122.846321 137.682053,124.676819 135.896408,124.857506 
	C131.454956,125.306931 126.936401,124.945595 122.450806,125.024025 
	C119.276978,125.079514 117.964981,123.614632 117.986610,120.488617 
	C118.050987,111.182739 118.044922,101.875923 117.989952,92.569931 
	C117.973106,89.717018 119.166023,88.138008 122.065086,88.114410 
	C126.884056,88.075172 131.719040,87.895203 136.513000,88.244690 
	C137.860016,88.342880 139.087250,90.084404 140.369415,91.072151 
	C139.024643,92.118744 137.773743,93.876656 136.316254,94.068962 
	C132.919479,94.517136 129.423294,94.211922 125.652130,94.211922 
	C125.652130,97.161903 125.652130,99.722221 125.652130,102.875420 
	C128.318375,102.875420 130.999847,102.496696 133.498825,103.008644 
	C135.163132,103.349602 136.567123,104.961098 138.087631,106.003937 
	C136.493011,107.000900 135.005478,108.508171 133.277740,108.870705 
	C130.910873,109.367363 128.361618,108.994858 125.348862,108.994858 
	C125.348862,111.894577 125.348862,114.498314 125.418121,117.550598 
z"/>
<path fill="#070707" opacity="1.000000" stroke="none" 
	d="
M229.040161,131.944000 
	C229.034027,97.639961 229.034027,63.828434 229.034027,29.132246 
	C221.276688,29.132246 213.636200,29.132246 205.995697,29.132246 
	C205.982788,28.493683 205.969879,27.855120 205.956970,27.216557 
	C214.564789,27.216557 223.172607,27.216557 232.056900,27.216557 
	C232.056900,64.181999 232.056900,101.752876 232.056900,139.088852 
	C223.252625,139.088852 214.594376,139.088852 205.936127,139.088852 
	C205.912827,138.494171 205.889526,137.899506 205.866226,137.304825 
	C213.408997,137.304825 220.951767,137.304825 228.759979,137.304825 
	C228.895844,134.994736 228.971069,133.715622 229.040161,131.944000 
z"/>
<path fill="#050505" opacity="1.000000" stroke="none" 
	d="
M33.472878,139.335724 
	C30.373804,139.343155 27.733120,139.343155 24.884827,139.343155 
	C24.884827,101.558342 24.884827,64.113937 24.884827,26.651535 
	C31.426779,25.136593 48.655193,25.934441 52.051754,28.738796 
	C43.487640,28.738796 35.883999,28.738796 28.116667,28.738796 
	C28.116667,65.002716 28.116667,100.411003 28.116667,136.799164 
	C35.846935,136.799164 43.472275,136.799164 51.097610,136.799164 
	C51.109257,137.558838 51.120903,138.318512 51.132545,139.078171 
	C45.398788,139.161545 39.665028,139.244919 33.472878,139.335724 
z"/>
<path fill="#030303" opacity="1.000000" stroke="none" 
	d="
M89.097412,44.645874 
	C89.183578,54.183109 89.183578,63.284241 89.183578,72.900330 
	C93.211960,72.900330 96.694687,72.588676 100.073120,73.046570 
	C101.518715,73.242500 102.747070,75.041313 104.074135,76.111801 
	C102.782578,77.073029 101.545509,78.761627 100.189552,78.863205 
	C95.561852,79.209885 90.892021,78.967018 86.238838,79.010658 
	C83.327637,79.037964 81.993958,77.663925 82.003410,74.765984 
	C82.033768,65.458893 81.909035,56.149216 82.122330,46.846916 
	C82.156586,45.353107 83.303009,43.137772 84.508141,42.638405 
	C85.603973,42.184326 87.479454,43.611752 89.097412,44.645874 
z"/>
<path fill="#FBFBFB" opacity="1.000000" stroke="none" 
	d="
M92.619148,118.983765 
	C91.436378,118.277199 90.063423,117.555931 90.047157,116.805267 
	C89.886101,109.371292 89.949677,101.932442 89.949677,94.526642 
	C97.847282,93.756599 102.105644,96.700981 102.949509,103.287857 
	C104.167519,112.794968 101.249054,117.417908 92.619148,118.983765 
z"/>
<path fill="#EAEAEA" opacity="1.000000" stroke="none" 
	d="
M59.134605,55.262783 
	C59.833492,52.853317 60.447876,50.832691 61.378319,47.772591 
	C62.938705,53.648739 64.214783,58.454231 65.589104,63.629707 
	C62.638916,63.629707 60.086163,63.629707 57.101295,63.629707 
	C57.756897,60.945774 58.403500,58.298698 59.134605,55.262783 
z"/>
<path fill="#ECECEC" opacity="1.000000" stroke="none" 
	d="
M118.092232,62.291542 
	C119.303261,57.676144 120.461121,53.482090 121.618980,49.288040 
	C121.915680,49.301384 122.212387,49.314732 122.509087,49.328079 
	C123.761597,53.977913 125.014107,58.627747 126.577637,64.432198 
	C123.214325,63.754971 120.626701,63.233932 118.092232,62.291542 
z"/>
</svg>