<svg version="1.1" id="Layer_1" xmlns="http://www.w3.org/2000/svg" xmlns:xlink="http://www.w3.org/1999/xlink" x="0px" y="0px"
	 width="100%" viewBox="0 0 978 304" enable-background="new 0 0 978 304" xml:space="preserve">
<path fill="#FEFEFE" opacity="1.000000" stroke="none" 
	d="
M634.000000,305.000000 
	C422.666656,305.000000 211.833328,305.000000 1.000000,305.000000 
	C1.000000,203.666672 1.000000,102.333336 1.000000,1.000000 
	C327.000000,1.000000 653.000000,1.000000 979.000000,1.000000 
	C979.000000,102.333336 979.000000,203.666672 979.000000,305.000000 
	C864.166687,305.000000 749.333313,305.000000 634.000000,305.000000 
M207.738342,212.840805 
	C208.131592,211.420898 208.833054,210.007751 208.864273,208.579926 
	C208.993301,202.679077 208.810822,196.770172 209.006561,190.872986 
	C209.048462,189.610733 210.190994,188.385010 210.933945,187.888657 
	C215.875595,199.148956 223.960800,208.083405 235.223480,212.169785 
	C253.517563,218.807297 271.302887,217.053879 287.024231,201.610474 
	C287.024231,206.643188 287.024231,209.723846 287.024231,212.670624 
	C297.949799,212.670624 308.519226,212.670624 318.672607,212.670624 
	C318.672607,180.116745 318.672607,147.895401 318.672607,115.381477 
	C308.714417,115.381477 299.244293,115.197937 289.796204,115.571190 
	C288.308044,115.629967 286.727753,118.070389 285.562988,119.679550 
	C284.948822,120.528038 285.140045,121.959488 284.926636,123.405426 
	C256.557495,103.247330 223.108414,113.868774 210.082413,140.984100 
	C209.713715,139.166061 209.028488,137.348831 209.023834,135.529861 
	C208.954834,108.614029 208.976013,81.697975 208.976151,54.781967 
	C208.976166,51.944260 209.466568,48.935921 204.992813,48.992954 
	C195.856155,49.109428 186.716141,48.975410 177.580154,49.115635 
	C176.715149,49.128910 175.868744,50.353073 174.795898,51.928303 
	C174.795898,94.889977 174.795898,137.851639 174.795898,180.813309 
	C172.863403,178.876862 171.824997,176.940750 170.978775,174.923981 
	C167.082748,165.638763 163.158356,156.364014 159.402252,147.021927 
	C155.803848,138.072083 152.497726,129.004532 148.883560,120.061295 
	C145.220169,110.996208 141.258774,102.051788 137.572098,92.995811 
	C133.948303,84.094307 130.147125,75.239731 127.085144,66.141968 
	C124.073479,57.193707 124.247681,56.925571 114.882339,56.925571 
	C106.434219,56.925571 97.986099,56.925575 90.205795,56.925575 
	C69.015091,109.415199 48.190022,160.999161 27.196238,213.001007 
	C39.386173,213.001007 51.206890,213.111328 63.019146,212.845795 
	C64.330742,212.816315 66.220322,210.883270 66.775650,209.426605 
	C69.782036,201.540466 72.268349,193.453201 75.378532,185.611603 
	C76.089943,183.817932 78.532623,181.515152 80.213646,181.486176 
	C97.697113,181.184967 115.188896,181.216125 132.674454,181.449234 
	C134.203415,181.469620 136.462646,183.258850 137.094543,184.766403 
	C140.946793,193.957108 144.426270,203.304077 148.130768,212.858627 
	C167.616302,212.858627 187.251450,212.858627 207.738342,212.840805 
M713.672363,197.135071 
	C714.101135,200.869598 714.381958,204.629959 715.027039,208.326736 
	C715.309998,209.948257 716.335999,211.440094 717.958801,213.004028 
	C726.957336,213.004349 735.965515,212.757385 744.950195,213.110825 
	C749.349854,213.283905 750.230713,211.658508 750.181396,207.663910 
	C749.990112,192.168427 750.105591,176.669144 750.111633,161.171265 
	C750.113831,155.586121 750.904785,150.259705 755.046631,146.013718 
	C764.747559,136.069122 779.928406,136.002075 785.122498,150.487961 
	C786.758911,155.051605 786.905884,160.300980 786.974670,165.247086 
	C787.193848,181.024567 787.055908,196.807022 787.055908,212.682800 
	C798.552734,212.682800 809.607849,212.682800 821.288574,212.682800 
	C821.288574,204.711182 821.288574,197.055756 821.288574,187.924881 
	C828.698730,202.659058 839.110474,212.351273 853.715027,214.550446 
	C868.315247,216.748917 883.525330,217.247147 896.477966,206.689957 
	C897.651367,220.601303 893.836243,230.042740 882.015625,233.897095 
	C876.130127,235.816132 869.172485,235.407364 862.838745,234.737976 
	C855.625427,233.975586 850.566284,228.780914 846.161194,223.474319 
	C836.919189,228.102142 827.906067,232.615372 817.868652,237.641525 
	C822.845154,243.419174 826.594910,248.682373 831.244568,252.969543 
	C839.365173,260.457031 849.911621,263.321655 860.399902,264.494904 
	C876.555054,266.302094 892.589417,265.303223 907.359131,256.956055 
	C918.875671,250.447418 926.453186,240.810379 928.678894,228.020279 
	C930.372070,218.290176 930.333435,208.197510 930.417847,198.260651 
	C930.634338,172.765976 930.487488,147.268250 930.493958,121.771736 
	C930.494690,118.918434 930.620667,115.572754 926.808594,115.468109 
	C917.043274,115.200043 907.265747,115.378647 897.193542,115.378647 
	C896.961243,118.327431 896.772278,120.726601 896.563232,123.380386 
	C895.298279,123.144096 894.094788,123.276085 893.422363,122.740868 
	C880.919556,112.789207 867.000977,110.913322 851.799377,114.813988 
	C842.357300,117.236786 834.694458,122.092026 828.742554,129.722549 
	C825.807312,133.485626 822.977539,137.330963 819.550537,141.866226 
	C818.186646,129.020584 806.777771,118.551964 790.248596,114.512550 
	C774.765564,110.728790 762.470276,114.990044 750.521729,125.641541 
	C750.328125,122.813202 750.620422,120.872665 749.969482,119.330200 
	C749.325317,117.803612 747.764343,115.589653 746.544983,115.550224 
	C736.933899,115.239464 727.308350,115.377647 716.887207,115.377647 
	C716.887207,124.721375 716.887207,133.675552 716.887207,143.512360 
	C715.098022,141.893646 713.790771,141.255386 713.366638,140.246002 
	C706.351501,123.552307 692.365356,115.892464 675.781555,113.514252 
	C656.953735,110.814240 639.797791,115.474663 626.644043,130.535904 
	C625.476074,131.873260 623.627502,132.616241 621.304138,134.161224 
	C621.565735,122.221260 619.951355,111.974083 615.113220,102.312309 
	C600.993591,74.114967 578.454224,58.495186 546.816956,57.082897 
	C532.014526,56.422123 517.159607,56.924145 502.328461,56.944439 
	C500.737274,56.946613 499.146515,57.252209 497.597137,57.412739 
	C497.597137,109.371529 497.597137,160.800476 497.597137,212.233551 
	C498.219086,212.491714 498.673645,212.852005 499.118530,212.840439 
	C518.990417,212.322571 538.869568,211.967209 558.729126,211.141464 
	C568.390625,210.739731 576.776855,206.318359 584.961731,201.393341 
	C596.200012,194.631012 604.738403,185.280289 612.245911,174.061676 
	C613.244141,175.323975 614.534363,176.215652 614.697998,177.280487 
	C615.911255,185.173798 620.237305,191.436523 625.244080,197.205719 
	C631.758850,204.712494 639.479614,211.094528 649.413391,212.925476 
	C658.063110,214.519730 667.016296,214.824875 675.847595,214.973297 
	C684.316650,215.115601 692.218323,212.373657 699.179321,207.494080 
	C703.890869,204.191330 708.314087,200.477310 713.672363,197.135071 
M392.925964,148.725662 
	C393.635559,152.476135 394.896057,156.217621 394.957458,159.978683 
	C395.196747,174.631638 395.055969,189.290802 395.056488,203.947647 
	C395.056580,206.883331 395.056488,209.819016 395.056488,212.616730 
	C406.695557,212.616730 417.748322,212.616730 428.842682,212.616730 
	C428.842682,190.084885 428.983398,167.938950 428.702850,145.798355 
	C428.656616,142.149261 427.088928,138.390503 425.667358,134.909927 
	C419.303101,119.327705 405.465637,115.340195 390.770996,113.167587 
	C379.365631,111.481293 369.876282,116.218941 361.229065,123.143990 
	C360.263672,123.917114 359.011322,124.331932 357.377716,125.179878 
	C357.377716,122.153160 357.738617,120.223709 357.256561,118.534843 
	C356.908997,117.317154 355.460022,115.539658 354.466644,115.516121 
	C344.862183,115.288513 335.250183,115.379547 325.208191,115.379547 
	C325.208191,148.153503 325.208191,180.468735 325.208191,212.738556 
	C336.016479,212.738556 346.611359,212.738556 357.386383,212.738556 
	C357.386383,208.154587 357.292725,203.833206 357.403381,199.517059 
	C357.781952,184.750961 357.945435,169.970657 358.770294,155.228195 
	C359.215332,147.274628 368.266907,139.673721 376.213867,139.041046 
	C383.771423,138.439392 388.558655,142.559830 392.925964,148.725662 
M458.500153,143.245285 
	C451.018799,143.245316 443.535797,143.337616 436.056824,143.203690 
	C432.675079,143.143127 431.270569,144.475815 431.327728,147.859802 
	C431.439941,154.507996 431.549622,161.166840 431.288879,167.806702 
	C431.135956,171.700302 432.378754,173.041794 436.372314,172.989059 
	C451.332428,172.791580 466.296692,172.910049 481.259399,172.910049 
	C485.029480,172.910049 488.799591,172.910049 492.628723,172.910049 
	C492.628723,162.800400 492.628723,153.249893 492.628723,143.245285 
	C481.359772,143.245285 470.429962,143.245285 458.500153,143.245285 
z"/>
<path fill="#040404" opacity="1.000000" stroke="none" 
	d="
M712.866272,196.947250 
	C708.314087,200.477310 703.890869,204.191330 699.179321,207.494080 
	C692.218323,212.373657 684.316650,215.115601 675.847595,214.973297 
	C667.016296,214.824875 658.063110,214.519730 649.413391,212.925476 
	C639.479614,211.094528 631.758850,204.712494 625.244080,197.205719 
	C620.237305,191.436523 615.911255,185.173798 614.697998,177.280487 
	C614.534363,176.215652 613.244141,175.323975 612.245911,174.061676 
	C604.738403,185.280289 596.200012,194.631012 584.961731,201.393341 
	C576.776855,206.318359 568.390625,210.739731 558.729126,211.141464 
	C538.869568,211.967209 518.990417,212.322571 499.118530,212.840439 
	C498.673645,212.852005 498.219086,212.491714 497.597137,212.233551 
	C497.597137,160.800476 497.597137,109.371529 497.597137,57.412739 
	C499.146515,57.252209 500.737274,56.946613 502.328461,56.944439 
	C517.159607,56.924145 532.014526,56.422123 546.816956,57.082897 
	C578.454224,58.495186 600.993591,74.114967 615.113220,102.312309 
	C619.951355,111.974083 621.565735,122.221260 621.304138,134.161224 
	C623.627502,132.616241 625.476074,131.873260 626.644043,130.535904 
	C639.797791,115.474663 656.953735,110.814240 675.781555,113.514252 
	C692.365356,115.892464 706.351501,123.552307 713.366638,140.246002 
	C713.790771,141.255386 715.098022,141.893646 716.887207,143.512360 
	C716.887207,133.675552 716.887207,124.721375 716.887207,115.377647 
	C727.308350,115.377647 736.933899,115.239464 746.544983,115.550224 
	C747.764343,115.589653 749.325317,117.803612 749.969482,119.330200 
	C750.620422,120.872665 750.328125,122.813202 750.521729,125.641541 
	C762.470276,114.990044 774.765564,110.728790 790.248596,114.512550 
	C806.777771,118.551964 818.186646,129.020584 819.550537,141.866226 
	C822.977539,137.330963 825.807312,133.485626 828.742554,129.722549 
	C834.694458,122.092026 842.357300,117.236786 851.799377,114.813988 
	C867.000977,110.913322 880.919556,112.789207 893.422363,122.740868 
	C894.094788,123.276085 895.298279,123.144096 896.563232,123.380386 
	C896.772278,120.726601 896.961243,118.327431 897.193542,115.378647 
	C907.265747,115.378647 917.043274,115.200043 926.808594,115.468109 
	C930.620667,115.572754 930.494690,118.918434 930.493958,121.771736 
	C930.487488,147.268250 930.634338,172.765976 930.417847,198.260651 
	C930.333435,208.197510 930.372070,218.290176 928.678894,228.020279 
	C926.453186,240.810379 918.875671,250.447418 907.359131,256.956055 
	C892.589417,265.303223 876.555054,266.302094 860.399902,264.494904 
	C849.911621,263.321655 839.365173,260.457031 831.244568,252.969543 
	C826.594910,248.682373 822.845154,243.419174 817.868652,237.641525 
	C827.906067,232.615372 836.919189,228.102142 846.161194,223.474319 
	C850.566284,228.780914 855.625427,233.975586 862.838745,234.737976 
	C869.172485,235.407364 876.130127,235.816132 882.015625,233.897095 
	C893.836243,230.042740 897.651367,220.601303 896.477966,206.689957 
	C883.525330,217.247147 868.315247,216.748917 853.715027,214.550446 
	C839.110474,212.351273 828.698730,202.659058 821.288574,187.924881 
	C821.288574,197.055756 821.288574,204.711182 821.288574,212.682800 
	C809.607849,212.682800 798.552734,212.682800 787.055908,212.682800 
	C787.055908,196.807022 787.193848,181.024567 786.974670,165.247086 
	C786.905884,160.300980 786.758911,155.051605 785.122498,150.487961 
	C779.928406,136.002075 764.747559,136.069122 755.046631,146.013718 
	C750.904785,150.259705 750.113831,155.586121 750.111633,161.171265 
	C750.105591,176.669144 749.990112,192.168427 750.181396,207.663910 
	C750.230713,211.658508 749.349854,213.283905 744.950195,213.110825 
	C735.965515,212.757385 726.957336,213.004349 717.386963,212.539612 
	C716.815125,197.861725 716.815125,183.648285 716.815125,169.347107 
	C693.279358,169.347107 670.388428,169.347107 647.353149,169.347107 
	C647.430603,170.517197 647.354309,171.373245 647.572937,172.145874 
	C647.830383,173.055847 648.594116,173.862457 648.706299,174.767471 
	C649.741882,183.119629 658.103027,187.763626 664.742737,188.839539 
	C674.643311,190.443848 683.365784,187.686295 690.723755,180.649246 
	C691.659180,179.754608 693.937805,179.184036 695.013855,179.692184 
	C701.933838,182.959869 708.692139,186.569977 716.062195,190.354462 
	C714.995361,192.555145 713.930847,194.751205 712.866272,196.947250 
M577.335205,158.857101 
	C578.684692,155.300354 580.293884,151.817947 581.337097,148.173523 
	C585.171082,134.780212 584.084473,121.697937 576.929382,109.717438 
	C566.814880,92.781830 550.091797,86.451866 533.434326,89.537086 
	C533.434326,119.905663 533.434326,150.284271 533.434326,180.869370 
	C552.399292,182.344604 567.298401,176.269333 577.335205,158.857101 
M859.575623,146.972198 
	C849.275208,156.058365 851.078918,173.030228 857.117798,179.729401 
	C862.934265,186.181976 870.315186,187.736710 878.548096,186.988510 
	C887.192505,186.202942 895.855530,177.682678 896.846436,169.263046 
	C898.560120,154.702789 893.513977,147.447571 879.805725,142.486069 
	C872.137146,139.710556 866.209045,142.546890 859.575623,146.972198 
M679.523376,138.997635 
	C674.725342,133.798615 663.376404,133.550583 656.091553,137.268677 
	C651.682800,139.518829 648.751343,145.609467 649.538025,150.670395 
	C661.245483,150.670395 672.969971,150.670395 686.487793,150.670395 
	C684.119141,146.228745 682.223267,142.673538 679.523376,138.997635 
z"/>
<path fill="#020202" opacity="1.000000" stroke="none" 
	d="
M210.936066,140.950409 
	C223.108414,113.868774 256.557495,103.247330 284.926636,123.405426 
	C285.140045,121.959488 284.948822,120.528038 285.562988,119.679550 
	C286.727753,118.070389 288.308044,115.629967 289.796204,115.571190 
	C299.244293,115.197937 308.714417,115.381477 318.672607,115.381477 
	C318.672607,147.895401 318.672607,180.116745 318.672607,212.670624 
	C308.519226,212.670624 297.949799,212.670624 287.024231,212.670624 
	C287.024231,209.723846 287.024231,206.643188 287.024231,201.610474 
	C271.302887,217.053879 253.517563,218.807297 235.223480,212.169785 
	C223.960800,208.083405 215.875595,199.148956 210.921082,187.130371 
	C209.910080,184.194763 208.911957,182.017441 207.913834,179.840118 
	C207.571426,179.857040 207.229004,179.873962 206.886597,179.890884 
	C206.886597,190.880142 206.886597,201.869385 206.886597,212.858627 
	C187.251450,212.858627 167.616302,212.858627 148.130768,212.858627 
	C144.426270,203.304077 140.946793,193.957108 137.094543,184.766403 
	C136.462646,183.258850 134.203415,181.469620 132.674454,181.449234 
	C115.188896,181.216125 97.697113,181.184967 80.213646,181.486176 
	C78.532623,181.515152 76.089943,183.817932 75.378532,185.611603 
	C72.268349,193.453201 69.782036,201.540466 66.775650,209.426605 
	C66.220322,210.883270 64.330742,212.816315 63.019146,212.845795 
	C51.206890,213.111328 39.386173,213.001007 27.196238,213.001007 
	C48.190022,160.999161 69.015091,109.415199 90.205795,56.925575 
	C97.986099,56.925575 106.434219,56.925571 114.882339,56.925571 
	C124.247681,56.925571 124.073479,57.193707 127.085144,66.141968 
	C130.147125,75.239731 133.948303,84.094307 137.572098,92.995811 
	C141.258774,102.051788 145.220169,110.996208 148.883560,120.061295 
	C152.497726,129.004532 155.803848,138.072083 159.402252,147.021927 
	C163.158356,156.364014 167.082748,165.638763 170.978775,174.923981 
	C171.824997,176.940750 172.863403,178.876862 174.795898,180.813309 
	C174.795898,137.851639 174.795898,94.889977 175.372559,51.469048 
	C186.193146,51.009796 196.437073,51.009796 207.357422,51.009796 
	C207.357422,83.894203 207.357422,116.143387 207.357422,148.392563 
	C207.688354,148.427856 208.019287,148.463150 208.350204,148.498444 
	C209.212158,145.982422 210.074112,143.466415 210.936066,140.950409 
M248.907257,181.596451 
	C254.117264,186.238266 259.833160,188.383133 267.093353,187.121201 
	C277.110443,185.380096 285.119110,178.597794 286.682312,168.708618 
	C287.973480,160.540543 285.784729,152.956467 279.576996,147.468140 
	C272.167236,140.917130 263.032806,138.943954 254.155624,143.603531 
	C240.208069,150.924545 236.211426,168.934296 248.907257,181.596451 
M92.699852,142.027344 
	C91.463020,144.730453 90.226189,147.433578 88.659081,150.858490 
	C95.068939,150.858490 100.676720,150.858490 106.284500,150.858490 
	C112.038521,150.858490 117.792549,150.858490 124.199043,150.858490 
	C122.171883,144.876190 120.523064,139.699036 118.659599,134.600357 
	C116.861412,129.680267 114.575142,124.926346 112.983147,119.946037 
	C110.709480,112.833214 108.050774,107.692093 105.753265,106.846352 
	C104.417000,110.223099 103.026062,113.573227 101.760132,116.969948 
	C98.753494,125.037277 95.806053,133.126678 92.699852,142.027344 
z"/>
<path fill="#030303" opacity="1.000000" stroke="none" 
	d="
M392.869324,148.314270 
	C388.558655,142.559830 383.771423,138.439392 376.213867,139.041046 
	C368.266907,139.673721 359.215332,147.274628 358.770294,155.228195 
	C357.945435,169.970657 357.781952,184.750961 357.403381,199.517059 
	C357.292725,203.833206 357.386383,208.154587 357.386383,212.738556 
	C346.611359,212.738556 336.016479,212.738556 325.208191,212.738556 
	C325.208191,180.468735 325.208191,148.153503 325.208191,115.379547 
	C335.250183,115.379547 344.862183,115.288513 354.466644,115.516121 
	C355.460022,115.539658 356.908997,117.317154 357.256561,118.534843 
	C357.738617,120.223709 357.377716,122.153160 357.377716,125.179878 
	C359.011322,124.331932 360.263672,123.917114 361.229065,123.143990 
	C369.876282,116.218941 379.365631,111.481293 390.770996,113.167587 
	C405.465637,115.340195 419.303101,119.327705 425.667358,134.909927 
	C427.088928,138.390503 428.656616,142.149261 428.702850,145.798355 
	C428.983398,167.938950 428.842682,190.084885 428.842682,212.616730 
	C417.748322,212.616730 406.695557,212.616730 395.056488,212.616730 
	C395.056488,209.819016 395.056580,206.883331 395.056488,203.947647 
	C395.055969,189.290802 395.196747,174.631638 394.957458,159.978683 
	C394.896057,156.217621 393.635559,152.476135 392.869324,148.314270 
z"/>
<path fill="#0D0D0D" opacity="1.000000" stroke="none" 
	d="
M459.000183,143.245285 
	C470.429962,143.245285 481.359772,143.245285 492.628723,143.245285 
	C492.628723,153.249893 492.628723,162.800400 492.628723,172.910049 
	C488.799591,172.910049 485.029480,172.910049 481.259399,172.910049 
	C466.296692,172.910049 451.332428,172.791580 436.372314,172.989059 
	C432.378754,173.041794 431.135956,171.700302 431.288879,167.806702 
	C431.549622,161.166840 431.439941,154.507996 431.327728,147.859802 
	C431.270569,144.475815 432.675079,143.143127 436.056824,143.203690 
	C443.535797,143.337616 451.018799,143.245316 459.000183,143.245285 
z"/>
<path fill="#F6F6F6" opacity="1.000000" stroke="none" 
	d="
M713.269287,197.041168 
	C713.930847,194.751205 714.995361,192.555145 716.062195,190.354462 
	C708.692139,186.569977 701.933838,182.959869 695.013855,179.692184 
	C693.937805,179.184036 691.659180,179.754608 690.723755,180.649246 
	C683.365784,187.686295 674.643311,190.443848 664.742737,188.839539 
	C658.103027,187.763626 649.741882,183.119629 648.706299,174.767471 
	C648.594116,173.862457 647.830383,173.055847 647.572937,172.145874 
	C647.354309,171.373245 647.430603,170.517197 647.353149,169.347107 
	C670.388428,169.347107 693.279358,169.347107 716.815125,169.347107 
	C716.815125,183.648285 716.815125,197.861725 716.919922,212.532990 
	C716.335999,211.440094 715.309998,209.948257 715.027039,208.326736 
	C714.381958,204.629959 714.101135,200.869598 713.269287,197.041168 
z"/>
<path fill="#8C8C8C" opacity="1.000000" stroke="none" 
	d="
M210.509247,140.967255 
	C210.074112,143.466415 209.212158,145.982422 208.350204,148.498444 
	C208.019287,148.463150 207.688354,148.427856 207.357422,148.392563 
	C207.357422,116.143387 207.357422,83.894203 207.357422,51.009796 
	C196.437073,51.009796 186.193146,51.009796 175.481476,51.012428 
	C175.868744,50.353073 176.715149,49.128910 177.580154,49.115635 
	C186.716141,48.975410 195.856155,49.109428 204.992813,48.992954 
	C209.466568,48.935921 208.976166,51.944260 208.976151,54.781967 
	C208.976013,81.697975 208.954834,108.614029 209.023834,135.529861 
	C209.028488,137.348831 209.713715,139.166061 210.509247,140.967255 
z"/>
<path fill="#7E7E7E" opacity="1.000000" stroke="none" 
	d="
M207.312469,212.849716 
	C206.886597,201.869385 206.886597,190.880142 206.886597,179.890884 
	C207.229004,179.873962 207.571426,179.857040 207.913834,179.840118 
	C208.911957,182.017441 209.910080,184.194763 210.867355,186.757263 
	C210.190994,188.385010 209.048462,189.610733 209.006561,190.872986 
	C208.810822,196.770172 208.993301,202.679077 208.864273,208.579926 
	C208.833054,210.007751 208.131592,211.420898 207.312469,212.849716 
z"/>
<path fill="#FAFAFA" opacity="1.000000" stroke="none" 
	d="
M577.173340,159.206558 
	C567.298401,176.269333 552.399292,182.344604 533.434326,180.869370 
	C533.434326,150.284271 533.434326,119.905663 533.434326,89.537086 
	C550.091797,86.451866 566.814880,92.781830 576.929382,109.717438 
	C584.084473,121.697937 585.171082,134.780212 581.337097,148.173523 
	C580.293884,151.817947 578.684692,155.300354 577.173340,159.206558 
z"/>
<path fill="#FAFAFA" opacity="1.000000" stroke="none" 
	d="
M859.978271,146.914215 
	C866.209045,142.546890 872.137146,139.710556 879.805725,142.486069 
	C893.513977,147.447571 898.560120,154.702789 896.846436,169.263046 
	C895.855530,177.682678 887.192505,186.202942 878.548096,186.988510 
	C870.315186,187.736710 862.934265,186.181976 857.117798,179.729401 
	C851.078918,173.030228 849.275208,156.058365 859.978271,146.914215 
z"/>
<path fill="#EEEEEE" opacity="1.000000" stroke="none" 
	d="
M679.925354,139.057983 
	C682.223267,142.673538 684.119141,146.228745 686.487793,150.670395 
	C672.969971,150.670395 661.245483,150.670395 649.538025,150.670395 
	C648.751343,145.609467 651.682800,139.518829 656.091553,137.268677 
	C663.376404,133.550583 674.725342,133.798615 679.925354,139.057983 
z"/>
<path fill="#F9F9F9" opacity="1.000000" stroke="none" 
	d="
M248.609406,181.352234 
	C236.211426,168.934296 240.208069,150.924545 254.155624,143.603531 
	C263.032806,138.943954 272.167236,140.917130 279.576996,147.468140 
	C285.784729,152.956467 287.973480,160.540543 286.682312,168.708618 
	C285.119110,178.597794 277.110443,185.380096 267.093353,187.121201 
	C259.833160,188.383133 254.117264,186.238266 248.609406,181.352234 
z"/>
<path fill="#F3F3F3" opacity="1.000000" stroke="none" 
	d="
M92.767273,141.617249 
	C95.806053,133.126678 98.753494,125.037277 101.760132,116.969948 
	C103.026062,113.573227 104.417000,110.223099 105.753265,106.846352 
	C108.050774,107.692093 110.709480,112.833214 112.983147,119.946037 
	C114.575142,124.926346 116.861412,129.680267 118.659599,134.600357 
	C120.523064,139.699036 122.171883,144.876190 124.199043,150.858490 
	C117.792549,150.858490 112.038521,150.858490 106.284500,150.858490 
	C100.676720,150.858490 95.068939,150.858490 88.659081,150.858490 
	C90.226189,147.433578 91.463020,144.730453 92.767273,141.617249 
z"/>
</svg>